<svg id="Layer_1" data-name="Layer 1" xmlns="http://www.w3.org/2000/svg" viewBox="0 0 147.1 147.1"><title>Icons</title><g id="Filled_Icons" data-name="Filled Icons"><path d="M98.16,102.9c8.72-3.82,9.74-16.64,9.74-28.69,0-13.9-9-24.79-20.42-24.79-6.08,0-9.6,4.63-15.58,4.63s-9.51-4.63-15.59-4.63c-11.44,0-20.41,10.89-20.41,24.79,0,12.06,1,24.87,9.73,28.69,6,2.62,16.08-1.25,26.17-1.24S92.12,105.53,98.16,102.9Z" style="fill:#fff;stroke:#003359;stroke-miterlimit:10;stroke-width:4px"/></g><g id="Filled_Icons-2" data-name="Filled Icons"><path d="M132.88,49.42c-11.45,0-20.42,10.89-20.42,24.79,0,12.06,1,24.87,9.74,28.69,2.63,1.15,6.06,1,9.92.57" style="fill:#fff;stroke:#003359;stroke-linecap:round;stroke-linejoin:round;stroke-width:4px"/></g><g id="Filled_Icons-3" data-name="Filled Icons"><path d="M15.65,49.42c8.8,0,15.7,10.89,15.7,24.79,0,12.06-.78,24.87-7.49,28.69-2,1.15-4.66,1-7.64.57" style="fill:#fff;stroke:#003359;stroke-linecap:round;stroke-linejoin:round;stroke-width:3.50815796852112px"/></g><g id="Filled_Icons-4" data-name="Filled Icons"><path d="M98.16,102.9c8.72-3.82,9.74-16.64,9.74-28.69,0-13.9-9-24.79-20.42-24.79-6.08,0-9.6,4.63-15.58,4.63s-9.51-4.63-15.59-4.63c-11.44,0-20.41,10.89-20.41,24.79,0,12.06,1,24.87,9.73,28.69,6,2.62,16.08-1.25,26.17-1.24S92.12,105.53,98.16,102.9Z" style="fill:#fff;stroke:#003359;stroke-miterlimit:10;stroke-width:4px"/></g><path d="M107.88,76.48c0-.76,0-1.51,0-2.27,0-13.9-9-24.79-20.42-24.79-6.08,0-9.6,4.63-15.58,4.63s-9.51-4.63-15.59-4.63c-11.44,0-20.41,10.89-20.41,24.79,0,.71,0,1.41,0,2.12A147.68,147.68,0,0,0,107.88,76.48Z" style="fill:#5ac8c3"/><path d="M106.91,76.72l1-.24c0-.33,0-.67,0-1" style="fill:none;stroke:#003359;stroke-linecap:round;stroke-linejoin:round;stroke-width:3px"/><path d="M107.57,69.68C105.87,58,97.65,49.42,87.48,49.42c-6.08,0-9.6,4.63-15.58,4.63s-9.51-4.63-15.59-4.63c-11,0-19.63,10-20.36,23" style="fill:none;stroke:#003359;stroke-linecap:round;stroke-linejoin:round;stroke-width:3px;stroke-dasharray:1.937098741531372,5.811296463012695"/><path d="M35.9,75.33c0,.33,0,.67,0,1l1,.24" style="fill:none;stroke:#003359;stroke-linecap:round;stroke-linejoin:round;stroke-width:3px"/><path d="M42.79,77.9A147.66,147.66,0,0,0,104,77.4" style="fill:none;stroke:#003359;stroke-linecap:round;stroke-linejoin:round;stroke-width:3px;stroke-dasharray:2.0198440551757812,6.059532165527344"/><g id="Filled_Icons-5" data-name="Filled Icons"><path d="M98.16,102.9c8.72-3.82,9.74-16.64,9.74-28.69,0-13.9-9-24.79-20.42-24.79-6.08,0-9.6,4.63-15.58,4.63s-9.51-4.63-15.59-4.63c-11.44,0-20.41,10.89-20.41,24.79,0,12.06,1,24.87,9.73,28.69,6,2.62,16.08-1.25,26.17-1.24S92.12,105.53,98.16,102.9Z" style="fill:none;stroke:#003359;stroke-miterlimit:10;stroke-width:4px"/></g></svg>