<svg id="Layer_1" data-name="Layer 1" xmlns="http://www.w3.org/2000/svg" viewBox="0 0 147.1 147.1"><title>Icons</title><g id="Filled_Icons" data-name="Filled Icons"><path d="M91.23,114.39C100,110.57,101,97.75,101,85.7c0-13.9-9-24.79-20.42-24.79-6.08,0-9.6,4.63-15.58,4.63s-9.51-4.63-15.59-4.63C37.94,60.91,29,71.8,29,85.7c0,12.06,1,24.87,9.73,28.69,6,2.62,16.08-1.24,26.17-1.24S85.19,117,91.23,114.39Z" style="fill:#fff;stroke:#003359;stroke-miterlimit:10;stroke-width:4px"/></g><path d="M51.58,70.4c-7.57,0-13.51,7.21-13.51,16.4" style="fill:#fff;stroke:#003359;stroke-linecap:round;stroke-miterlimit:10;stroke-width:3px"/><path d="M57.35,64.74,60,102.31c.42,6,9.49,6,9.92,0l2.65-37.57" style="fill:#caece8"/><line x1="57.35" y1="64.74" x2="57.42" y2="65.74" style="fill:none;stroke:#003359;stroke-linecap:round;stroke-miterlimit:10;stroke-width:3px"/><path d="M57.86,71.88,60,102.31c.42,6,9.49,6,9.92,0l2.37-33.5" style="fill:none;stroke:#003359;stroke-linecap:round;stroke-miterlimit:10;stroke-width:3px;stroke-dasharray:2.051100969314575,6.1533026695251465"/><line x1="72.51" y1="65.74" x2="72.58" y2="64.74" style="fill:none;stroke:#003359;stroke-linecap:round;stroke-miterlimit:10;stroke-width:3px"/><rect x="92.58" y="37.74" width="7.44" height="15.61" transform="translate(-4 81.43) rotate(-45)" style="fill:#caece8;stroke:#003359;stroke-linecap:round;stroke-linejoin:round;stroke-width:3px"/><line x1="90" y1="51.84" x2="93.67" y2="48.17" style="fill:#caece8;stroke:#003359;stroke-linecap:round;stroke-linejoin:round;stroke-width:3px"/><rect x="104.92" y="29.52" width="7.44" height="35.66" transform="translate(-1.66 90.69) rotate(-45)" style="fill:#caece8;stroke:#003359;stroke-linecap:round;stroke-linejoin:round;stroke-width:3px"/><g id="Filled_Icons-2" data-name="Filled Icons"><path d="M91.23,114.39C100,110.57,101,97.75,101,85.7c0-13.9-9-24.79-20.42-24.79-6.08,0-9.6,4.63-15.58,4.63s-9.51-4.63-15.59-4.63C37.94,60.91,29,71.8,29,85.7c0,12.06,1,24.87,9.73,28.69,6,2.62,16.08-1.24,26.17-1.24S85.19,117,91.23,114.39Z" style="fill:none;stroke:#003359;stroke-miterlimit:10;stroke-width:4px"/></g><path d="M51.58,70.4c-7.57,0-13.51,7.21-13.51,16.4" style="fill:none;stroke:#003359;stroke-linecap:round;stroke-miterlimit:10;stroke-width:3px"/></svg>