<svg id="Layer_1" data-name="Layer 1" xmlns="http://www.w3.org/2000/svg" viewBox="0 0 147.1 147.1"><title>Icons</title><g id="Filled_Icons" data-name="Filled Icons"><path d="M100.37,102.9c8.72-3.82,9.74-16.64,9.74-28.69,0-13.9-9-24.79-20.42-24.79-6.08,0-9.6,4.63-15.58,4.63s-9.51-4.63-15.59-4.63c-11.45,0-20.41,10.89-20.41,24.79,0,12.06,1,24.87,9.73,28.69,6,2.62,16.08-1.25,26.17-1.24S94.33,105.53,100.37,102.9Z" style="fill:#fff;stroke:#003359;stroke-miterlimit:10;stroke-width:4px"/></g><path d="M115.75,78.42c0-1.51,0-2.93,0-4.21,0-17.08-11.45-30.46-26.08-30.46-4.36,0-7.67,1.61-10.33,2.9-2.22,1.07-3.66,1.73-5.26,1.73s-3-.66-5.25-1.73c-2.66-1.29-6-2.9-10.33-2.9-14.63,0-26.08,13.38-26.08,30.46,0,1.28,0,2.7,0,4.21A147.67,147.67,0,0,0,115.75,78.42Z" style="fill:#caece8"/><path d="M60.72,58.91c-7.58,0-13.51,7.21-13.51,16.4" style="fill:none;stroke:#003359;stroke-linecap:round;stroke-miterlimit:10;stroke-width:3px"/><path d="M32.46,78.42c0-.34,0-.67,0-1" style="fill:none;stroke:#003359;stroke-linecap:round;stroke-miterlimit:10;stroke-width:3px"/><path d="M32.55,71.31c1.21-15.68,12.18-27.56,26-27.56,4.36,0,7.67,1.61,10.33,2.9,2.21,1.07,3.65,1.73,5.25,1.73s3-.66,5.26-1.73c2.66-1.29,6-2.9,10.33-2.9,14.63,0,26.08,13.38,26.08,30.46v.16" style="fill:none;stroke:#003359;stroke-linecap:round;stroke-miterlimit:10;stroke-width:3px;stroke-dasharray:2.03783917427063,6.1135172843933105"/><path d="M115.76,77.42c0,.33,0,.66,0,1" style="fill:none;stroke:#003359;stroke-linecap:round;stroke-miterlimit:10;stroke-width:3px"/><g id="Filled_Icons-2" data-name="Filled Icons"><path d="M100.37,102.9c8.72-3.82,9.74-16.64,9.74-28.69,0-13.9-9-24.79-20.42-24.79-6.08,0-9.6,4.63-15.58,4.63s-9.51-4.63-15.59-4.63c-11.45,0-20.41,10.89-20.41,24.79,0,12.06,1,24.87,9.73,28.69,6,2.62,16.08-1.25,26.17-1.24S94.33,105.53,100.37,102.9Z" style="fill:none;stroke:#003359;stroke-miterlimit:10;stroke-width:4px"/></g></svg>