<svg id="Layer_1" data-name="Layer 1" xmlns="http://www.w3.org/2000/svg" viewBox="0 0 147.1 93.54"><title>Icons</title><g id="Filled_Icons" data-name="Filled Icons"><path d="M132.76,35.59c-11.44,0-20.41,10.9-20.41,24.8,0,12.06,1,24.87,9.73,28.68,2.64,1.16,6.06,1.06,9.93.58" style="fill:#fff;stroke:#003359;stroke-linecap:round;stroke-linejoin:round;stroke-width:4px"/></g><g id="Filled_Icons-2" data-name="Filled Icons"><path d="M15.53,35.59c8.81,0,15.71,10.9,15.71,24.8,0,12.06-.78,24.87-7.49,28.68-2,1.16-4.66,1.06-7.64.58" style="fill:#fff;stroke:#003359;stroke-linecap:round;stroke-linejoin:round;stroke-width:3.50815796852112px"/></g><g id="Filled_Icons-3" data-name="Filled Icons"><path d="M98,89.07c8.73-3.81,9.74-16.63,9.74-28.68,0-13.9-9-24.8-20.41-24.8-6.09,0-9.6,4.64-15.59,4.64s-9.5-4.64-15.58-4.64c-11.45,0-20.42,10.9-20.42,24.8,0,12.06,1,24.87,9.74,28.68,6,2.63,16.08-1.24,26.17-1.23S91.93,91.71,98,89.07Z" style="fill:#fff;stroke:#003359;stroke-miterlimit:10;stroke-width:4px"/></g><path d="M58.32,45.08c-5.68,0-10.44,4.06-12.46,10" style="fill:#fff;stroke:#003359;stroke-linecap:round;stroke-miterlimit:10;stroke-width:3px"/><g id="Filled_Icons-4" data-name="Filled Icons"><path d="M98,89.07c8.73-3.81,9.74-16.63,9.74-28.68,0-13.9-9-24.8-20.41-24.8-6.09,0-9.6,4.64-15.59,4.64s-9.5-4.64-15.58-4.64c-11.45,0-20.42,10.9-20.42,24.8,0,12.06,1,24.87,9.74,28.68,6,2.63,16.08-1.24,26.17-1.23S91.93,91.71,98,89.07Z" style="fill:#fff;stroke:#003359;stroke-miterlimit:10;stroke-width:4px"/></g><g id="Filled_Icons-5" data-name="Filled Icons"><path d="M122.35,79.57c8.73-3.82,9.74-16.64,9.74-28.69,0-13.9-9-24.79-20.42-24.79-6.08,0-9.59,4.63-15.58,4.63s-9.5-4.63-15.58-4.63C69.06,26.09,60.09,37,60.09,50.88c0,12.06,1,24.87,9.74,28.69,6,2.62,16.07-1.25,26.17-1.24S116.32,82.2,122.35,79.57Z" style="fill:#5ac8c3"/></g><path d="M96,78.33a67.26,67.26,0,0,1,9.7.87c1.69-5.45,2-12.24,2-18.81,0-13.9-9-24.8-20.41-24.8-6.09,0-9.6,4.64-15.59,4.64-3.3,0-5.85-1.41-8.5-2.68a29.14,29.14,0,0,0-3.11,13.33c0,12.06,1,24.87,9.74,28.69C75.82,82.19,85.9,78.32,96,78.33Z" style="fill:#caece8"/><path d="M13.29,56.52c34.1,10.71,89.27,10.71,123.36,0" style="fill:none;stroke:#003359;stroke-linecap:round;stroke-miterlimit:10;stroke-width:3px;stroke-dasharray:2,6"/><path d="M58.32,45.08c-5.68,0-10.44,4.06-12.46,10" style="fill:none;stroke:#003359;stroke-linecap:round;stroke-miterlimit:10;stroke-width:3px"/><g id="Filled_Icons-6" data-name="Filled Icons"><path d="M132.76,35.59c-11.44,0-20.41,10.9-20.41,24.8,0,12.06,1,24.87,9.73,28.68,2.64,1.16,6.06,1.06,9.93.58" style="fill:none;stroke:#003359;stroke-linecap:round;stroke-linejoin:round;stroke-width:4px"/></g><g id="Filled_Icons-7" data-name="Filled Icons"><path d="M15.53,35.59c8.81,0,15.71,10.9,15.71,24.8,0,12.06-.78,24.87-7.49,28.68-2,1.16-4.66,1.06-7.64.58" style="fill:none;stroke:#003359;stroke-linecap:round;stroke-linejoin:round;stroke-width:3.50815796852112px"/></g><g id="Filled_Icons-8" data-name="Filled Icons"><path d="M98,89.07c8.73-3.81,9.74-16.63,9.74-28.68,0-13.9-9-24.8-20.41-24.8-6.09,0-9.6,4.64-15.59,4.64s-9.5-4.64-15.58-4.64c-11.45,0-20.42,10.9-20.42,24.8,0,12.06,1,24.87,9.74,28.68,6,2.63,16.08-1.24,26.17-1.23S91.93,91.71,98,89.07Z" style="fill:none;stroke:#003359;stroke-miterlimit:10;stroke-width:4px"/></g><path d="M58.32,45.08c-5.68,0-10.44,4.06-12.46,10" style="fill:none;stroke:#003359;stroke-linecap:round;stroke-miterlimit:10;stroke-width:3px"/><g id="Filled_Icons-9" data-name="Filled Icons"><path d="M98,89.07c8.73-3.81,9.74-16.63,9.74-28.68,0-13.9-9-24.8-20.41-24.8-6.09,0-9.6,4.64-15.59,4.64s-9.5-4.64-15.58-4.64c-11.45,0-20.42,10.9-20.42,24.8,0,12.06,1,24.87,9.74,28.68,6,2.63,16.08-1.24,26.17-1.23S91.93,91.71,98,89.07Z" style="fill:none;stroke:#003359;stroke-miterlimit:10;stroke-width:4px"/></g></svg>