<svg id="Layer_1" data-name="Layer 1" xmlns="http://www.w3.org/2000/svg" viewBox="0 0 147.1 147.1"><title>Icons</title><g id="Filled_Icons" data-name="Filled Icons"><path d="M75.57,58.62c-3.49,1.37-6.46,3.62-10.64,3.63-6,0-9.5-4.64-15.58-4.64-11.45,0-20.42,10.9-20.42,24.8,0,12,1,24.87,9.74,28.68,6,2.62,16.07-1.24,26.16-1.24s20.33,3.88,26.36,1.24c6.54-2.86,8.75-10.79,9.44-19.66" style="fill:#fff;stroke:#003359;stroke-miterlimit:10;stroke-width:4px"/></g><g id="Filled_Icons-2" data-name="Filled Icons"><path d="M51.51,67.1C43.94,67.1,38,74.31,38,83.5" style="fill:none;stroke:#003359;stroke-linecap:round;stroke-miterlimit:10;stroke-width:3px"/></g><g id="Outline_Icons" data-name="Outline Icons"><g id="Outline_Icons-2" data-name="Outline Icons"><circle cx="100.31" cy="65.64" r="25.6" style="fill:#5ac8c3;stroke:#003359;stroke-linejoin:round;stroke-width:4px"/></g></g><polygon points="112.81 61 105.28 61 105.28 53.47 95.99 53.47 95.99 61 88.46 61 88.46 70.29 95.99 70.29 95.99 77.82 105.28 77.82 105.28 70.29 112.81 70.29 112.81 61" style="fill:#caece8;stroke:#003359;stroke-linecap:round;stroke-linejoin:round;stroke-width:3px"/></svg>