<svg id="Layer_1" data-name="Layer 1" xmlns="http://www.w3.org/2000/svg" viewBox="0 0 147.1 147.1"><title>Icons</title><g id="Filled_Icons" data-name="Filled Icons"><path d="M132.12,47.06c-11.45,0-20.42,10.89-20.42,24.79,0,12.06,1,24.87,9.74,28.69,2.63,1.15,6.06,1,9.92.57" style="fill:#fff;stroke:#003359;stroke-linecap:round;stroke-linejoin:round;stroke-width:4px"/></g><g id="Filled_Icons-2" data-name="Filled Icons"><path d="M14.88,47.06c8.81,0,15.71,10.89,15.71,24.79,0,12.06-.78,24.87-7.49,28.69-2,1.15-4.66,1-7.64.57" style="fill:#fff;stroke:#003359;stroke-linecap:round;stroke-linejoin:round;stroke-width:3.50815796852112px"/></g><g id="Filled_Icons-3" data-name="Filled Icons"><path d="M97.32,100.54c8.72-3.82,9.74-16.64,9.74-28.69,0-13.9-9-24.79-20.42-24.79-6.08,0-9.6,4.63-15.58,4.63s-9.51-4.63-15.59-4.63C44,47.06,35.06,58,35.06,71.85c0,12.06,1,24.87,9.73,28.69,6,2.62,16.08-1.25,26.17-1.24S91.28,103.18,97.32,100.54Z" style="fill:#fff;stroke:#003359;stroke-miterlimit:10;stroke-width:4px"/></g><path d="M57.67,56.55c-5.68,0-10.44,4.05-12.46,10" style="fill:#fff;stroke:#003359;stroke-linecap:round;stroke-miterlimit:10;stroke-width:3px"/><g id="Filled_Icons-4" data-name="Filled Icons"><path d="M97.32,100.54c8.72-3.82,9.74-16.64,9.74-28.69,0-13.9-9-24.79-20.42-24.79-6.08,0-9.6,4.63-15.58,4.63s-9.51-4.63-15.59-4.63C44,47.06,35.06,58,35.06,71.85c0,12.06,1,24.87,9.73,28.69,6,2.62,16.08-1.25,26.17-1.24S91.28,103.18,97.32,100.54Z" style="fill:#fff;stroke:#003359;stroke-miterlimit:10;stroke-width:4px"/></g><path d="M10.51,72c34.49,7.53,88.94,6.8,123.36,0" style="fill:none;stroke:#003359;stroke-linecap:round;stroke-miterlimit:10;stroke-width:3px"/><path d="M57.67,56.55c-5.68,0-10.44,4.05-12.46,10" style="fill:none;stroke:#003359;stroke-linecap:round;stroke-miterlimit:10;stroke-width:3px"/><rect x="58.33" y="71.13" width="27.11" height="12.29" transform="translate(143.77 154.54) rotate(180)" style="fill:#5ac8c3;stroke:#003359;stroke-linecap:round;stroke-linejoin:round;stroke-width:3px"/></svg>