<svg id="Layer_1" data-name="Layer 1" xmlns="http://www.w3.org/2000/svg" viewBox="0 0 147.1 147.1"><title>Icons</title><circle cx="72.23" cy="47.31" r="9.93" style="fill:#5ac8c3;stroke:#003359;stroke-linejoin:round;stroke-width:3px"/><circle cx="116.98" cy="47.31" r="9.93" style="fill:#5ac8c3;stroke:#003359;stroke-linejoin:round;stroke-width:3px"/><circle cx="72.23" cy="47.35" r="5.45" style="fill:#caece8"/><circle cx="116.98" cy="47.35" r="5.45" style="fill:#caece8"/><g id="Filled_Icons" data-name="Filled Icons"><path d="M69.69,60.92c-3.48,1.36-6.46,3.62-10.63,3.62-6,0-9.51-4.63-15.59-4.63C32,59.91,23.06,70.8,23.06,84.7c0,12.06,1,24.87,9.73,28.69,6,2.62,16.08-1.25,26.17-1.24s20.32,3.88,26.36,1.24c6.54-2.86,8.75-10.79,9.44-19.66" style="fill:#fff;stroke:#003359;stroke-miterlimit:10;stroke-width:4px"/></g><g id="Filled_Icons-2" data-name="Filled Icons"><path d="M45.63,69.4c-7.57,0-13.5,7.21-13.5,16.4" style="fill:none;stroke:#003359;stroke-linecap:round;stroke-miterlimit:10;stroke-width:3px"/></g><circle cx="94.76" cy="66.66" r="25.78" style="fill:#5ac8c3;stroke:#003359;stroke-linejoin:round;stroke-width:3px"/><circle cx="94.76" cy="73.91" r="12.87" style="fill:#caece8"/><circle cx="107.43" cy="61.16" r="2.72" style="fill:#003359"/><circle cx="81.76" cy="61.16" r="2.72" style="fill:#003359"/><path d="M95.07,65.78H91.92s-2-.27-2.71,1-.4,2.44,1.2,3.64L95,73.81" style="fill:#003359"/><path d="M94.88,65.78h2.7s1.72-.27,2.32,1,.35,2.44-1,3.64l-3.93,3.42" style="fill:#003359"/><path d="M98.1,78.24a3.77,3.77,0,0,1-3.57-1.55V72.32" style="fill:none;stroke:#003359;stroke-linecap:round;stroke-linejoin:round;stroke-width:1.93934684734722px"/><path d="M91.05,78.24a3.69,3.69,0,0,0,3.52-1.55V72.32" style="fill:none;stroke:#003359;stroke-linecap:round;stroke-linejoin:round;stroke-width:1.92829570652344px"/></svg>