<svg id="Layer_1" data-name="Layer 1" xmlns="http://www.w3.org/2000/svg" viewBox="0 0 156.39 147.1"><title>Icons</title><g id="Filled_Icons" data-name="Filled Icons"><path d="M137.69,39.88c-11.45,0-20.42,10.89-20.42,24.79,0,12.06,1,24.87,9.74,28.69,2.64,1.15,6.06,1,9.93.58" style="fill:#fff;stroke:#003359;stroke-linecap:round;stroke-linejoin:round;stroke-width:4px"/></g><g id="Filled_Icons-2" data-name="Filled Icons"><path d="M20.46,39.88c8.81,0,15.7,10.89,15.7,24.79,0,12.06-.78,24.87-7.49,28.69-2,1.15-4.66,1-7.63.58" style="fill:#fff;stroke:#003359;stroke-linecap:round;stroke-linejoin:round;stroke-width:3.50815796852112px"/></g><g id="Filled_Icons-3" data-name="Filled Icons"><path d="M102.89,93.36c8.73-3.82,9.74-16.64,9.74-28.69,0-13.9-9-24.79-20.41-24.79-6.09,0-9.6,4.63-15.59,4.63s-9.5-4.63-15.58-4.63c-11.45,0-20.42,10.89-20.42,24.79,0,12.06,1,24.87,9.74,28.69,6,2.62,16.07-1.25,26.17-1.24S96.86,96,102.89,93.36Z" style="fill:#fff;stroke:#003359;stroke-miterlimit:10;stroke-width:4px"/></g><g id="Filled_Icons-4" data-name="Filled Icons"><path d="M102.89,93.36c8.73-3.82,9.74-16.64,9.74-28.69,0-13.9-9-24.79-20.41-24.79-6.09,0-9.6,4.63-15.59,4.63s-9.5-4.63-15.58-4.63c-11.45,0-20.42,10.89-20.42,24.79,0,12.06,1,24.87,9.74,28.69,6,2.62,16.07-1.25,26.17-1.24S96.86,96,102.89,93.36Z" style="fill:#fff;stroke:#003359;stroke-miterlimit:10;stroke-width:4px"/></g><path d="M8.21,77.58s47.46-8.31,139,0c0,0,5.09,3.49,1.7,10.79s-7.38,23.44-71.79,23.44" style="fill:#caece8"/><path d="M147.22,77.58s-47.47-8.31-139,0c0,0-5.09,3.49-1.7,10.79s7.38,23.44,71.81,23.44" style="fill:#caece8"/><path d="M63.24,49.37c-5.68,0-10.43,4.05-12.46,10" style="fill:none;stroke:#003359;stroke-linecap:round;stroke-miterlimit:10;stroke-width:3px"/><g id="Filled_Icons-5" data-name="Filled Icons"><path d="M137.69,39.88c-11.45,0-20.42,10.89-20.42,24.79,0,12.06,1,24.87,9.74,28.69,2.64,1.15,6.06,1,9.93.58" style="fill:none;stroke:#003359;stroke-linecap:round;stroke-linejoin:round;stroke-width:4px"/></g><g id="Filled_Icons-6" data-name="Filled Icons"><path d="M20.46,39.88c8.81,0,15.7,10.89,15.7,24.79,0,12.06-.78,24.87-7.49,28.69-2,1.15-4.66,1-7.63.58" style="fill:none;stroke:#003359;stroke-linecap:round;stroke-linejoin:round;stroke-width:3.50815796852112px"/></g><g id="Filled_Icons-7" data-name="Filled Icons"><path d="M102.89,93.36c8.73-3.82,9.74-16.64,9.74-28.69,0-13.9-9-24.79-20.41-24.79-6.09,0-9.6,4.63-15.59,4.63s-9.5-4.63-15.58-4.63c-11.45,0-20.42,10.89-20.42,24.79,0,12.06,1,24.87,9.74,28.69,6,2.62,16.07-1.25,26.17-1.24S96.86,96,102.89,93.36Z" style="fill:none;stroke:#003359;stroke-miterlimit:10;stroke-width:4px"/></g><g id="Filled_Icons-8" data-name="Filled Icons"><path d="M102.89,93.36c8.73-3.82,9.74-16.64,9.74-28.69,0-13.9-9-24.79-20.41-24.79-6.09,0-9.6,4.63-15.59,4.63s-9.5-4.63-15.58-4.63c-11.45,0-20.42,10.89-20.42,24.79,0,12.06,1,24.87,9.74,28.69,6,2.62,16.07-1.25,26.17-1.24S96.86,96,102.89,93.36Z" style="fill:none;stroke:#003359;stroke-miterlimit:10;stroke-width:4px"/></g></svg>