<svg id="Layer_1" data-name="Layer 1" xmlns="http://www.w3.org/2000/svg" viewBox="0 0 147.1 147.1"><title>Icons</title><g id="Filled_Icons" data-name="Filled Icons"><path d="M121.12,50.19c-11.45,0-20.42,10.9-20.42,24.8,0,12.05,1,24.87,9.74,28.68,2.63,1.15,6.06,1,9.93.58" style="fill:#fff;stroke:#003359;stroke-linecap:round;stroke-linejoin:round;stroke-width:4px"/></g><g id="Filled_Icons-2" data-name="Filled Icons"><path d="M23.82,50.19c8.81,0,15.71,10.9,15.71,24.8,0,12.05-.78,24.87-7.49,28.68-2,1.15-4.66,1-7.64.58" style="fill:#fff;stroke:#003359;stroke-linecap:round;stroke-linejoin:round;stroke-width:3.50815796852112px"/></g><g id="Filled_Icons-3" data-name="Filled Icons"><path d="M96.6,103.67c8.73-3.82,9.74-16.64,9.74-28.69,0-13.9-9-24.79-20.41-24.79-6.09,0-9.6,4.63-15.59,4.63s-9.5-4.63-15.58-4.63C43.31,50.19,34.34,61.08,34.34,75c0,12.06,1,24.87,9.74,28.69,6,2.62,16.08-1.25,26.17-1.24S90.57,106.3,96.6,103.67Z" style="fill:#5ac8c3"/></g><g id="Filled_Icons-4" data-name="Filled Icons"><path d="M96.52,103.67c8.72-3.81,9.74-16.64,9.74-28.68,0-13.91-9-24.8-20.42-24.8-6.08,0-9.6,4.64-15.58,4.64s-9.51-4.64-15.59-4.64c-11.45,0-20.41,10.9-20.41,24.8,0,12.05,1,24.87,9.73,28.68,6,2.62,16.08-1.24,26.17-1.23S90.48,106.31,96.52,103.67Z" style="fill:none;stroke:#003359;stroke-miterlimit:10;stroke-width:4px"/></g><path d="M56.87,59.68c-5.68,0-10.44,4.06-12.46,10" style="fill:none;stroke:#003359;stroke-linecap:round;stroke-miterlimit:10;stroke-width:3px"/><path d="M11.85,71.11c34.09,10.72,89.26,10.72,123.36,0" style="fill:none;stroke:#003359;stroke-linecap:round;stroke-miterlimit:10;stroke-width:3px;stroke-dasharray:2,6"/><g id="Filled_Icons-5" data-name="Filled Icons"><path d="M96.52,103.67c8.72-3.81,9.74-16.64,9.74-28.68,0-13.91-9-24.8-20.42-24.8-6.08,0-9.6,4.64-15.58,4.64s-9.51-4.64-15.59-4.64c-11.45,0-20.41,10.9-20.41,24.8,0,12.05,1,24.87,9.73,28.68,6,2.62,16.08-1.24,26.17-1.23S90.48,106.31,96.52,103.67Z" style="fill:none;stroke:#003359;stroke-miterlimit:10;stroke-width:4px"/></g><path d="M56.87,59.68c-5.68,0-10.44,4.06-12.46,10" style="fill:none;stroke:#003359;stroke-linecap:round;stroke-miterlimit:10;stroke-width:3px"/></svg>