<svg id="Layer_1" data-name="Layer 1" xmlns="http://www.w3.org/2000/svg" viewBox="0 0 147.1 147.1"><title>Icons</title><g id="Filled_Icons" data-name="Filled Icons"><path d="M100.44,102.9c8.73-3.82,9.74-16.64,9.74-28.69,0-13.9-9-24.79-20.41-24.79-6.09,0-9.6,4.63-15.59,4.63s-9.5-4.63-15.58-4.63c-11.45,0-20.42,10.89-20.42,24.79,0,12.06,1,24.87,9.74,28.69,6,2.62,16.08-1.25,26.17-1.24S94.41,105.53,100.44,102.9Z" style="fill:#fff;stroke:#003359;stroke-miterlimit:10;stroke-width:4px"/></g><path d="M60.79,58.91c-7.57,0-13.5,7.21-13.5,16.4" style="fill:none;stroke:#003359;stroke-linecap:round;stroke-miterlimit:10;stroke-width:3px"/><path d="M108.77,56a3,3,0,0,0-1.24.25,5.78,5.78,0,0,0-3-3,2.93,2.93,0,1,0-5.21,0,5.75,5.75,0,0,0-3,3,3.07,3.07,0,0,0-1.09-.2c-3.84,0-3.84,6,0,6a3.06,3.06,0,0,0,1-.17,5.81,5.81,0,0,0,2.88,3.16,2.89,2.89,0,1,0,5.67,0,5.82,5.82,0,0,0,2.94-3.31,2.94,2.94,0,0,0,1.06.19C112.6,61.94,112.61,56,108.77,56Z" style="fill:#caece8"/><path d="M102,76.69a1.5,1.5,0,0,1-1.5-1.5A14.46,14.46,0,0,0,85.74,60.41a1.5,1.5,0,1,1,0-3,14.47,14.47,0,0,0,14.79-14.79,1.5,1.5,0,0,1,3,0,14.46,14.46,0,0,0,14.78,14.79,1.5,1.5,0,0,1,0,3,14.45,14.45,0,0,0-14.78,14.78A1.5,1.5,0,0,1,102,76.69ZM93.15,58.91A17,17,0,0,1,102,67.79a16.94,16.94,0,0,1,8.88-8.88A17,17,0,0,1,102,50,17,17,0,0,1,93.15,58.91Z" style="fill:#003359"/></svg>